# xmcd
#
# Track frame offsets:
# 150
# 13203
# 29524
# 42478
# 56014
# 70344
# 87640
# 108035
# 125268
# 151807
# 170534
# 195564
#
# Disc length: 2852 seconds
#
#
# Revision: 0
# Processed by: cddbd v1.4PL0 Copyright (c) Steve Scherf et al.
# Submitted via: FreeRIP 2.40 
#
DISCID=a00b220c
DTITLE=Frnacis Cabrel - Play back
DYEAR=1995
DGENRE=Instrumental
TTITLE0=Je l'aime à mourir
TTITLE1=Petite Marie
TTITLE2=Les murs de poussière
TTITLE3=La dame de Haute Savoie
TTITLE4=L'encre de tes yeux
TTITLE5=Question d'équilibre
TTITLE6=Encore et encore
TTITLE7=Il faudra leur dire
TTITLE8=C'est écrit
TTITLE9=Sarbacane
TTITLE10=Animal
TTITLE11=Tout le monde y pense
EXTD=
EXTT0=
EXTT1=
EXTT2=
EXTT3=
EXTT4=
EXTT5=
EXTT6=
EXTT7=
EXTT8=
EXTT9=
EXTT10=
EXTT11=
PLAYORDER=
